FFmpeg version SVN-r25716, Copyright (c) 2000-2010 the FFmpeg developers  built on Nov 10 2010 12:23:18 with gcc 4.1.2 20080704 (Red Hat 4.1.2-48)  configuration: --enable-libmp3lame --enable-shared --disable-mmx --arch=x86_64  libavutil     50.33. 0 / 50.33. 0  libavcore      0.12. 1 /  0.12. 1  libavcodec    52.94. 4 / 52.94. 4  libavformat   52.84. 0 / 52.84. 0  libavdevice   52. 2. 2 / 52. 2. 2  libavfilter    1.59. 0 /  1.59. 0  libswscale     0.12. 0 /  0.12. 0Seems stream 0 codec frame rate differs from container frame rate: 1200.00 (1200/1) -> 10.00 (10/1)Input #0, mov,mp4,m4a,3gp,3g2,mj2, from '/RAID10/data/converted_video_files/8068.mov':  Metadata:    major_brand     : qt      minor_version   : 537199360    compatible_brands: qt    Duration: 00:00:48.00, start: 0.000000, bitrate: 978 kb/s    Stream #0.0(eng): Video: h264, yuv420p, 500x600, 976 kb/s, 10 fps, 10 tbr, 600 tbn, 1200 tbc[buffer @ 0xa75a950] w:500 h:600 pixfmt:yuv420pOutput #0, flv, to '/RAID10/data/converted_video_files/8068.flv':  Metadata:    encoder         : Lavf52.84.0    Stream #0.0(eng): Video: flv, yuv420p, 500x600, q=2-31, 600 kb/s, 1k tbn, 24 tbcStream mapping:  Stream #0.0 -> #0.0Press [q] to stop encodingframe=   48 fps=  0 q=30.5 size=     468kB time=4.75 bitrate= 807.0kbits/s    frame=   98 fps= 96 q=25.4 size=     694kB time=9.75 bitrate= 583.3kbits/s    frame=  142 fps= 93 q=26.0 size=     925kB time=14.12 bitrate= 536.6kbits/s    frame=  184 fps= 91 q=21.6 size=    1183kB time=18.33 bitrate= 528.6kbits/s    frame=  227 fps= 89 q=22.4 size=    1442kB time=22.62 bitrate= 522.0kbits/s    frame=  266 fps= 87 q=28.8 size=    1747kB time=26.54 bitrate= 539.3kbits/s    frame=  305 fps= 86 q=29.7 size=    2026kB time=30.46 bitrate= 544.9kbits/s    frame=  345 fps= 85 q=29.7 size=    2298kB time=34.46 bitrate= 546.3kbits/s    frame=  376 fps= 82 q=31.0 size=    2586kB time=37.54 bitrate= 564.3kbits/s    frame=  408 fps= 80 q=31.0 size=    2856kB time=40.75 bitrate= 574.2kbits/s    frame=  436 fps= 78 q=31.0 size=    3151kB time=43.54 bitrate= 592.9kbits/s    frame=  467 fps= 77 q=31.0 size=    3406kB time=46.62 bitrate= 598.4kbits/s    frame=  480 fps= 76 q=31.0 Lsize=    3537kB time=47.96 bitrate= 604.2kbits/s    video:3530kB audio:0kB global headers:0kB muxing overhead 0.218288%